<svg xmlns="http://www.w3.org/2000/svg" viewBox="0 0 64 64" fill="none" role="img" aria-label="Mnemos">
  <g fill="none" stroke="currentColor" stroke-width="5.25" stroke-linecap="butt" stroke-linejoin="miter">
    <!-- top-left loop -->
    <path d="M32 14 V24 C32 14 22 14 17 19 C12 24 12 32 20 32 H32"/>
    <!-- top-right loop -->
    <path d="M50 32 H40 C50 32 50 22 45 17 C40 12 32 12 32 20 V32"/>
    <!-- bottom-right loop -->
    <path d="M32 50 V40 C32 50 42 50 47 45 C52 40 52 32 44 32 H32"/>
    <!-- bottom-left loop -->
    <path d="M14 32 H24 C14 32 14 42 19 47 C24 52 32 52 32 44 V32"/>
  </g>
</svg>
